<svg xmlns="http://www.w3.org/2000/svg" width="126.4" height="102.1" viewBox="0 0 126.4 102.1"><path d="M43 80.5q-1.4 0-1.5-.2L45 60.2l-1.7-.9a13 13 0 0 1-5.5-5.3c-.6-1.3-.9-1.5-1.8-2a8 8 0 0 1-3.6-7.9q.1-1.2.4-1.8c.3-.6.3-.6-.3-1.2-.3-.3-.9-1.2-1.2-1.9a5 5 0 0 1-.7-3l.2-2.1.1-.6h-2l-2.9-.2q-3-1.2-3.4-4.4c-.1-2 .2-2.6 4-6.2 5.8-5.3 6.7-5.9 9.5-6.4l1.2-.3.6-1.4c1.6-3.9 5.1-6.8 9.5-7.9 4.2-1 8.2 0 11.1 2.9 4.8 4.8 4.4 12.4-.9 16q-1.3.8-.6.6l2.5-.2c1.9 0 2 0 3.4.8l1.5.7 1-.8a11 11 0 0 1 5.2-2c2.5-.1 5.3.8 7 2.3l.8.7 1.5-.4q4.6-1.6 10.3-.1A19 19 0 0 1 104 41.7c.6 3 .2 4.5-1.4 5.5l-1 .6v8.8l1.2 1.5 1.3 1.5-1.5 10-1.6 10.6c0 .4-.2.5-1.5.5H98l.1-.6 1.5-10 1.3-9.6-1.2-1.5-1.3-1.4V44.7h1.3c1.5 0 1.5-.1 1.2-2a16 16 0 0 0-12-13q-6.8-1.8-10.5 1.4l-.7.8-1.3-1.5c-1-1-1.6-1.6-2.6-2-1.2-.6-1.4-.7-3-.6-2.5.1-3.8.8-5.6 2.7L64 32l-.4-.6q-2-2.5-4.5-2.5-2.9 0-5 2.6-.6 1-1 1l-1.5-2.9C50 27 50 27 48.9 26.3q-2.4-1.1-3.5-3.6c-.5-1-.6-1.4-.6-2.9 0-1.6 0-1.8.7-3a7 7 0 0 1 6-3.6 6 6 0 0 1 4.9 3c1.4 3-.5 6.7-3.6 7l-1 .1V22c0-1.3.1-1.5.5-1.5q.4 0 1-.5c1.3-1.3.6-3.5-1.2-4-2.2-.6-4.6 1.8-4.2 4.2.2 1 1.3 2.7 2.1 3.4 3.8 2.7 9.5-.9 9.5-5.9 0-3.2-2-6.2-5.2-7.7-2.4-1-5.7-1-8.6.5-1.6.7-3.9 3-4.7 4.8-.6 1.4-1.2 3.6-1.2 4.9v.7H37v-1c0-1.2-.2-1.3-1.8-.5a70 70 0 0 0-9.6 8.7c-.3.7 0 1.8.6 2.3.4.4.8.4 5.6.5H37l-1.5 1.7c-1.7 1.9-2 2.4-2 3.7q0 2.6 2.8 4.2l1 .6q0 .1-.7 1l-1 1.6a6 6 0 0 0 .1 3.9c.5 1 2 2.5 3.1 2.8.7.2.8.3 1.1 1.2.5 1.4 1.8 3.2 2.8 4.1L45 57c1.2.6 1.7.7 3.7.8H51l2.3 4.7 2.3 4.6.5 6.6.6 6.7-3 .2c-3.5.1-8.4 0-8.4-.4l2.2-9.2c1.9-7.9 2-9 1.9-9.6q-.2-.8-.8-.7-.5 0-.6.2l-3.6 19q-.1.6.4.6zm10.7-.5-.5-6.1c-.5-5.2-.6-5.8-1-6.8q-.6-1-.7-.8l-3.3 14a9 9 0 0 0 2.8.2c2.7 0 2.7 0 2.7-.5m5.3.5h-1.5l.2-1.5.4-6.7.3-5.1 2-4.6 2-4.8 1.2.2a22 22 0 0 0 11 2.2c3.3-.2 5.2-.6 8.6-2l1-.4 6.4 4.6 6.3 4.5v6.9l.1 6.9h-2.9V68.5l-1.5-1-1.6-1.1-1.5 7.1-1.4 7-1.4.1c-1.2 0-1.3 0-1.3-.3s.6-3.8 1.5-7.9l1.5-7.7c0-.2-1-1-2.1-2L84 61.3l-1.8.5-2.6.8-.9.2 3 2.2L85 67a148 148 0 0 1-.8 13.3q0 .3-1.3.3-1.5.1-1.3-.4l.8-11.4c0-.4-.8-1-3.7-3L75 63.3H73c-2.2 0-4.9-.4-7.2-1.2q-2-.7-2-.4l-1.4 3.2-1.2 3-.3 5-.5 6.3-.1 1.3H73 59" style="display:inline;fill:#424143;stroke-width:.204212"/></svg>


<svg xmlns="http://www.w3.org/2000/svg" width="16" height="16" fill="currentColor" class="bi bi-taxi-front" viewBox="0 0 16 16">
  <path d="M4.862 5.276 3.906 7.19a.51.51 0 0 0 .497.731c.91-.073 2.35-.17 3.597-.17s2.688.097 3.597.17a.51.51 0 0 0 .497-.731l-.956-1.913A.5.5 0 0 0 10.691 5H5.309a.5.5 0 0 0-.447.276M4 10a1 1 0 1 1-2 0 1 1 0 0 1 2 0m10 0a1 1 0 1 1-2 0 1 1 0 0 1 2 0m-9 0a1 1 0 0 1 1-1h4a1 1 0 1 1 0 2H6a1 1 0 0 1-1-1"></path>
  <path d="M6 1a1 1 0 0 0-1 1v1h-.181A2.5 2.5 0 0 0 2.52 4.515l-.792 1.848a.8.8 0 0 1-.38.404c-.5.25-.855.715-.965 1.262L.05 9.708a2.5 2.5 0 0 0-.049.49v.413c0 .814.39 1.543 1 1.997V14.5a.5.5 0 0 0 .5.5h2a.5.5 0 0 0 .5-.5v-1.338c1.292.048 2.745.088 4 .088s2.708-.04 4-.088V14.5a.5.5 0 0 0 .5.5h2a.5.5 0 0 0 .5-.5v-1.892c.61-.454 1-1.183 1-1.997v-.413q0-.248-.049-.49l-.335-1.68a1.8 1.8 0 0 0-.964-1.261.8.8 0 0 1-.381-.404l-.792-1.848A2.5 2.5 0 0 0 11.181 3H11V2a1 1 0 0 0-1-1zM4.819 4h6.362a1.5 1.5 0 0 1 1.379.91l.792 1.847a1.8 1.8 0 0 0 .853.904c.222.112.381.32.43.564l.336 1.679q.03.146.029.294v.413a1.48 1.48 0 0 1-1.408 1.484c-1.555.07-3.786.155-5.592.155s-4.037-.084-5.592-.155A1.48 1.48 0 0 1 1 10.611v-.413q0-.148.03-.294l.335-1.68a.8.8 0 0 1 .43-.563c.383-.19.685-.511.853-.904l.792-1.848A1.5 1.5 0 0 1 4.82 4Z"></path>
</svg>